<?xml version="1.0" encoding="utf-8" standalone="no"?>
<!DOCTYPE svg PUBLIC "-//W3C//DTD SVG 1.1//EN"
  "http://www.w3.org/Graphics/SVG/1.1/DTD/svg11.dtd">
<svg xmlns:xlink="http://www.w3.org/1999/xlink" width="1382.4pt" height="751.68pt" viewBox="0 0 1382.4 751.68" xmlns="http://www.w3.org/2000/svg" version="1.1">
 <metadata>
  <rdf:RDF xmlns:dc="http://purl.org/dc/elements/1.1/" xmlns:cc="http://creativecommons.org/ns#" xmlns:rdf="http://www.w3.org/1999/02/22-rdf-syntax-ns#">
   <cc:Work>
    <dc:type rdf:resource="http://purl.org/dc/dcmitype/StillImage"/>
    <dc:date>2025-01-03T13:47:58.126197</dc:date>
    <dc:format>image/svg+xml</dc:format>
    <dc:creator>
     <cc:Agent>
      <dc:title>Matplotlib v3.9.3, https://matplotlib.org/</dc:title>
     </cc:Agent>
    </dc:creator>
   </cc:Work>
  </rdf:RDF>
 </metadata>
 <defs>
  <style type="text/css">*{stroke-linejoin: round; stroke-linecap: butt}</style>
 </defs>
 <g id="figure_1">
  <g id="patch_1">
   <path d="M 0 751.68 
L 1382.4 751.68 
L 1382.4 0 
L 0 0 
z
" style="fill: #ffffff"/>
  </g>
  <g id="axes_1">
   <g id="patch_2">
    <path d="M 706.352082 646.609506 
C 846.306011 646.609506 980.54663 591.005221 1079.509002 492.042849 
C 1178.471374 393.080478 1234.075659 258.839858 1234.075659 118.88593 
C 1234.075659 -21.067999 1178.471374 -155.308618 1079.509002 -254.27099 
C 980.54663 -353.233361 846.306011 -408.837647 706.352082 -408.837647 
C 566.398154 -408.837647 432.157535 -353.233361 333.195163 -254.27099 
C 234.232791 -155.308618 178.628506 -21.067999 178.628506 118.88593 
C 178.628506 258.839858 234.232791 393.080478 333.195163 492.042849 
C 432.157535 591.005221 566.398154 646.609506 706.352082 646.609506 
L 706.352082 646.609506 
z
" clip-path="url(#pa6f69d3aa3)" style="fill: none; stroke: #d3d3d3; stroke-linejoin: miter"/>
   </g>
   <g id="line2d_1">
    <path d="M 706.352082 118.88593 
L 345.100435 503.579861 
" clip-path="url(#pa6f69d3aa3)" style="fill: none; stroke: #000000; stroke-linecap: square"/>
   </g>
   <g id="line2d_2">
    <path d="M 706.352082 118.88593 
L 378.557754 532.459444 
" clip-path="url(#pa6f69d3aa3)" style="fill: none; stroke: #000000; stroke-linecap: square"/>
   </g>
   <g id="line2d_3">
    <path d="M 706.352082 118.88593 
L 414.314315 558.438106 
" clip-path="url(#pa6f69d3aa3)" style="fill: none; stroke: #000000; stroke-linecap: square"/>
   </g>
   <g id="line2d_4">
    <path d="M 706.352082 118.88593 
L 452.11931 581.333625 
" clip-path="url(#pa6f69d3aa3)" style="fill: none; stroke: #000000; stroke-linecap: square"/>
   </g>
   <g id="line2d_5">
    <path d="M 706.352082 118.88593 
L 491.707566 600.985406 
" clip-path="url(#pa6f69d3aa3)" style="fill: none; stroke: #000000; stroke-linecap: square"/>
   </g>
   <g id="line2d_6">
    <path d="M 706.352082 118.88593 
L 532.801399 617.255606 
" clip-path="url(#pa6f69d3aa3)" style="fill: none; stroke: #000000; stroke-linecap: square"/>
   </g>
   <g id="line2d_7">
    <path d="M 706.352082 118.88593 
L 575.112566 630.0301 
" clip-path="url(#pa6f69d3aa3)" style="fill: none; stroke: #000000; stroke-linecap: square"/>
   </g>
   <g id="line2d_8">
    <path d="M 706.352082 118.88593 
L 618.344283 639.219285 
" clip-path="url(#pa6f69d3aa3)" style="fill: none; stroke: #000000; stroke-linecap: square"/>
   </g>
   <g id="line2d_9">
    <path d="M 706.352082 118.88593 
L 662.193312 644.758705 
" clip-path="url(#pa6f69d3aa3)" style="fill: none; stroke: #000000; stroke-linecap: square"/>
   </g>
   <g id="line2d_10">
    <path d="M 706.352082 118.88593 
L 706.352082 646.609506 
" clip-path="url(#pa6f69d3aa3)" style="fill: none; stroke: #000000; stroke-linecap: square"/>
   </g>
   <g id="line2d_11">
    <path d="M 706.352082 118.88593 
L 750.510853 644.758705 
" clip-path="url(#pa6f69d3aa3)" style="fill: none; stroke: #000000; stroke-linecap: square"/>
   </g>
   <g id="line2d_12">
    <path d="M 706.352082 118.88593 
L 794.359882 639.219285 
" clip-path="url(#pa6f69d3aa3)" style="fill: none; stroke: #000000; stroke-linecap: square"/>
   </g>
   <g id="line2d_13">
    <path d="M 706.352082 118.88593 
L 837.591599 630.0301 
" clip-path="url(#pa6f69d3aa3)" style="fill: none; stroke: #000000; stroke-linecap: square"/>
   </g>
   <g id="line2d_14">
    <path d="M 706.352082 118.88593 
L 879.902765 617.255606 
" clip-path="url(#pa6f69d3aa3)" style="fill: none; stroke: #000000; stroke-linecap: square"/>
   </g>
   <g id="line2d_15">
    <path d="M 706.352082 118.88593 
L 920.996598 600.985406 
" clip-path="url(#pa6f69d3aa3)" style="fill: none; stroke: #000000; stroke-linecap: square"/>
   </g>
   <g id="line2d_16">
    <path d="M 706.352082 118.88593 
L 960.584854 581.333625 
" clip-path="url(#pa6f69d3aa3)" style="fill: none; stroke: #000000; stroke-linecap: square"/>
   </g>
   <g id="line2d_17">
    <path d="M 706.352082 118.88593 
L 998.38985 558.438106 
" clip-path="url(#pa6f69d3aa3)" style="fill: none; stroke: #000000; stroke-linecap: square"/>
   </g>
   <g id="line2d_18">
    <path d="M 706.352082 118.88593 
L 1034.14641 532.459444 
" clip-path="url(#pa6f69d3aa3)" style="fill: none; stroke: #000000; stroke-linecap: square"/>
   </g>
   <g id="line2d_19">
    <path d="M 706.352082 118.88593 
L 1067.603729 503.579861 
" clip-path="url(#pa6f69d3aa3)" style="fill: none; stroke: #000000; stroke-linecap: square"/>
   </g>
   <g id="line2d_20">
    <path d="M 706.352082 118.88593 
L 706.352082 646.609506 
" clip-path="url(#pa6f69d3aa3)" style="fill: none; stroke: #ff0000; stroke-width: 2; stroke-linecap: square"/>
   </g>
   <g id="line2d_21">
    <path d="M 172.8 118.88593 
L 1244.16 118.88593 
" clip-path="url(#pa6f69d3aa3)" style="fill: none; stroke-dasharray: 1.85,0.8; stroke-dashoffset: 0; stroke: #000000; stroke-width: 0.5"/>
   </g>
   <g id="line2d_22">
    <path d="M 706.352082 668.9952 
L 706.352082 90.2016 
" clip-path="url(#pa6f69d3aa3)" style="fill: none; stroke-dasharray: 1.85,0.8; stroke-dashoffset: 0; stroke: #000000; stroke-width: 0.5"/>
   </g>
   <g id="legend_1">
    <g id="patch_3">
     <path d="M 179.8 663.9952 
L 223.1625 663.9952 
Q 225.1625 663.9952 225.1625 661.9952 
L 225.1625 648.317075 
Q 225.1625 646.317075 223.1625 646.317075 
L 179.8 646.317075 
Q 177.8 646.317075 177.8 648.317075 
L 177.8 661.9952 
Q 177.8 663.9952 179.8 663.9952 
z
" style="fill: #ffffff; opacity: 0.8; stroke: #cccccc; stroke-linejoin: miter"/>
    </g>
    <g id="line2d_23">
     <path d="M 181.8 654.415512 
L 191.8 654.415512 
L 201.8 654.415512 
" style="fill: none; stroke: #ff0000; stroke-width: 2; stroke-linecap: square"/>
    </g>
    <g id="text_1">
     <!-- 0° -->
     <g transform="translate(209.8 657.915512) scale(0.1 -0.1)">
      <defs>
       <path id="DejaVuSans-30" d="M 2034 4250 
Q 1547 4250 1301 3770 
Q 1056 3291 1056 2328 
Q 1056 1369 1301 889 
Q 1547 409 2034 409 
Q 2525 409 2770 889 
Q 3016 1369 3016 2328 
Q 3016 3291 2770 3770 
Q 2525 4250 2034 4250 
z
M 2034 4750 
Q 2819 4750 3233 4129 
Q 3647 3509 3647 2328 
Q 3647 1150 3233 529 
Q 2819 -91 2034 -91 
Q 1250 -91 836 529 
Q 422 1150 422 2328 
Q 422 3509 836 4129 
Q 1250 4750 2034 4750 
z
" transform="scale(0.015625)"/>
       <path id="DejaVuSans-b0" d="M 1600 4347 
Q 1350 4347 1178 4173 
Q 1006 4000 1006 3750 
Q 1006 3503 1178 3333 
Q 1350 3163 1600 3163 
Q 1850 3163 2022 3333 
Q 2194 3503 2194 3750 
Q 2194 3997 2020 4172 
Q 1847 4347 1600 4347 
z
M 1600 4750 
Q 1800 4750 1984 4673 
Q 2169 4597 2303 4453 
Q 2447 4313 2519 4134 
Q 2591 3956 2591 3750 
Q 2591 3338 2302 3052 
Q 2013 2766 1594 2766 
Q 1172 2766 890 3047 
Q 609 3328 609 3750 
Q 609 4169 896 4459 
Q 1184 4750 1600 4750 
z
" transform="scale(0.015625)"/>
      </defs>
      <use xlink:href="#DejaVuSans-30"/>
      <use xlink:href="#DejaVuSans-b0" x="63.623047"/>
     </g>
    </g>
   </g>
  </g>
 </g>
 <defs>
  <clipPath id="pa6f69d3aa3">
   <rect x="172.8" y="90.2016" width="1071.36" height="578.7936"/>
  </clipPath>
 </defs>
</svg>
